<svg xmlns="http://www.w3.org/2000/svg" width="22" height="22" viewBox="0 0 41.096 37.925"><path fill="none" stroke="#a3a3a3" d="M3.279.126H.144L.14 7.661l-.003 7.535-.004 7.534H.132l-.003 7.534v.001l-.003 7.534h10.673l.004-7.534.004-7.534h4.403l-.004 7.534h10.673l.004-7.534h4.404l-.004 7.534v.001l-.004 7.534h10.673l.004-7.534h-.001l.004-7.534h-.001l.004-7.534h-.001l.004-7.534.004-7.534H30.295l-.004 7.534h-4.403v.001h-3.135l-.003 7.534h-4.404l.004-7.534h-7.539l.004-7.534zm11.924 33.087-.003 4.572h3.141v-4.572zm7.542 0-.003 4.572h3.141v-4.572z"></path></svg>